<?xml version="1.0" standalone="no"?>
<!DOCTYPE svg PUBLIC "-//W3C//DTD SVG 20010904//EN"
 "http://www.w3.org/TR/2001/REC-SVG-20010904/DTD/svg10.dtd">
<svg version="1.0" xmlns="http://www.w3.org/2000/svg"
 width="991.000000pt" height="991.000000pt" viewBox="0 0 991.000000 991.000000"
 preserveAspectRatio="xMidYMid meet">
<metadata>
Created by potrace 1.14, written by Peter Selinger 2001-2017
</metadata>
<g transform="translate(0.000000,991.000000) scale(0.100000,-0.100000)"
fill="#000000" stroke="none">
<path d="M3136 7112 c-7 -33 -116 -609 -121 -637 -12 -75 -18 -105 -26 -143
-5 -23 -12 -59 -15 -80 -3 -20 -9 -53 -14 -72 -5 -19 -12 -55 -15 -80 -4 -24
-8 -47 -10 -50 -2 -3 -6 -24 -9 -46 -7 -42 -10 -58 -26 -139 -5 -27 -11 -61
-14 -75 -6 -35 -54 -291 -60 -316 -2 -12 -7 -37 -10 -55 -3 -19 -14 -81 -25
-139 -11 -58 -22 -116 -25 -130 -3 -20 -65 -346 -82 -435 -2 -11 -7 -36 -10
-55 -8 -45 -9 -49 -40 -210 -14 -74 -27 -146 -30 -160 -17 -94 -65 -349 -69
-366 -3 -12 -7 -39 -11 -60 -3 -21 -11 -66 -19 -99 -7 -33 -20 -100 -29 -150
-9 -49 -18 -101 -21 -115 -3 -14 -9 -50 -15 -80 -11 -60 -17 -92 -25 -130 -2
-14 -7 -38 -10 -55 -2 -16 -9 -55 -15 -85 -18 -90 -20 -99 -45 -240 -14 -74
-27 -145 -30 -157 l-5 -23 185 0 c102 0 185 2 185 4 0 2 5 28 11 57 14 73 17
89 29 159 16 95 17 100 35 195 10 50 19 99 20 111 2 11 8 45 14 75 6 30 13 68
16 84 2 17 29 165 59 330 30 165 57 311 59 325 3 14 12 66 22 115 9 50 18 99
20 110 2 18 35 203 50 280 7 36 21 117 29 165 4 19 9 46 11 60 11 53 16 78 30
160 14 82 19 107 30 160 2 14 7 41 10 60 3 19 8 46 10 60 9 45 15 74 35 190
27 147 24 135 49 270 12 63 23 126 26 140 3 14 18 99 35 190 16 91 45 253 65
360 19 107 38 209 41 225 2 17 13 77 24 135 11 58 22 121 25 140 3 19 8 42 10
50 2 8 7 35 10 60 3 25 8 52 10 60 2 8 7 29 10 47 l5 32 -169 0 -169 1 -6 -28z"/>
<path d="M7197 7118 c-32 -51 -87 -149 -87 -155 0 -4 -6 -14 -14 -22 -7 -9
-28 -43 -46 -76 -17 -33 -42 -78 -54 -100 -12 -22 -35 -62 -51 -90 -15 -27
-32 -56 -38 -62 -5 -7 -6 -13 -3 -13 4 0 0 -7 -8 -16 -9 -8 -16 -22 -16 -30 0
-8 -4 -14 -10 -14 -5 0 -10 -4 -10 -9 0 -5 -20 -44 -45 -85 -25 -42 -45 -81
-45 -86 0 -6 -5 -10 -11 -10 -5 0 -7 -4 -4 -10 3 -5 2 -10 -3 -10 -4 0 -14
-16 -22 -35 -8 -19 -18 -35 -22 -35 -5 0 -7 -4 -3 -9 3 -5 1 -12 -4 -16 -6 -3
-20 -26 -32 -50 -12 -25 -27 -45 -31 -45 -5 0 -7 -4 -4 -9 3 -4 -6 -23 -19
-41 -14 -19 -25 -37 -25 -41 0 -3 -23 -46 -51 -95 -29 -49 -63 -109 -77 -134
-13 -25 -28 -49 -32 -55 -6 -9 -50 -87 -86 -154 -13 -25 -23 -16 -22 19 1 15
-12 571 -17 718 -1 43 -5 84 -9 90 -3 6 -32 16 -64 23 -31 7 -61 14 -67 15 -5
1 -127 30 -270 63 l-260 61 -80 -80 c-44 -43 -87 -85 -95 -94 -8 -8 -97 -97
-196 -198 -183 -184 -233 -233 -221 -212 4 7 9 29 13 49 3 21 8 47 10 59 3 11
7 35 10 51 3 17 9 53 15 81 5 28 12 64 15 80 3 16 23 126 45 244 22 118 44
238 49 265 5 28 12 61 15 75 13 62 17 100 9 101 -5 0 -16 2 -24 4 -8 1 -44 8
-80 15 -36 6 -159 29 -274 51 -115 21 -211 37 -213 35 -3 -3 -22 -98 -39 -201
-3 -16 -30 -158 -59 -315 -30 -157 -56 -299 -59 -316 -3 -17 -13 -66 -21 -110
-9 -43 -18 -95 -21 -114 -3 -19 -17 -91 -30 -160 -14 -69 -27 -141 -30 -160
-3 -19 -12 -69 -21 -110 -9 -41 -17 -84 -18 -95 -6 -45 -15 -97 -26 -142 -5
-27 -13 -66 -16 -88 -3 -22 -9 -51 -14 -63 -8 -19 -592 -617 -847 -865 -34
-33 -62 -64 -62 -68 0 -4 97 -104 216 -223 l217 -215 133 133 c74 74 134 127
134 118 0 -8 -23 -137 -52 -286 -49 -254 -52 -281 -52 -426 0 -131 3 -167 22
-233 68 -238 217 -379 452 -426 30 -6 66 -14 80 -17 57 -13 317 -13 390 0 144
27 176 35 262 73 59 26 57 23 74 123 3 14 9 48 14 75 5 28 12 64 15 80 2 17 7
42 10 57 l6 26 -43 -10 c-53 -12 -221 -14 -306 -5 -69 8 -160 39 -207 70 -52
34 -104 99 -122 151 -24 69 -23 236 2 326 3 8 7 33 11 55 3 22 12 72 20 110 8
39 17 86 20 105 3 19 14 79 25 133 10 53 21 112 24 130 6 29 47 258 58 317 3
14 19 101 37 194 l31 170 148 148 c81 81 146 150 143 153 -3 3 0 5 6 5 6 0 22
11 36 25 14 14 23 25 20 25 -2 0 11 14 30 30 51 45 186 181 187 189 0 3 20 22
43 41 24 19 42 38 39 42 -2 4 5 9 14 12 10 4 29 22 43 41 14 19 31 35 38 35 6
0 12 6 12 13 0 6 13 20 28 31 15 10 38 32 50 49 22 32 22 32 23 7 4 -124 11
-412 13 -527 0 -79 4 -143 8 -143 4 0 5 -6 3 -12 -9 -24 -12 -88 -5 -88 9 0 6
-72 -4 -88 -4 -7 -4 -12 1 -12 4 0 9 -73 11 -163 4 -171 9 -338 11 -348 2 -12
41 -52 41 -43 0 5 4 5 8 -1 9 -13 42 -34 65 -41 9 -4 17 -10 17 -15 0 -5 5 -9
10 -9 13 0 263 -151 272 -164 4 -6 8 -7 8 -2 0 5 7 3 15 -4 9 -8 19 -9 24 -4
7 8 186 324 269 474 14 25 40 72 60 105 19 33 46 80 60 105 14 25 102 180 195
345 93 165 198 350 232 410 34 61 72 127 84 148 12 21 71 127 132 235 61 108
139 247 174 307 34 61 74 130 88 155 13 25 77 137 141 249 64 112 116 205 116
207 0 2 18 34 41 70 51 84 63 114 46 115 -31 4 -56 7 -112 18 -33 6 -74 13
-91 16 -18 3 -96 16 -175 29 -79 13 -164 27 -189 31 -24 4 -48 9 -52 11 -4 3
-14 -6 -21 -18z"/>
<path d="M2135 6491 c-28 -26 -104 -96 -170 -156 -66 -59 -169 -154 -230 -209
-60 -56 -132 -121 -160 -146 -27 -25 -77 -70 -110 -101 -33 -30 -85 -78 -115
-105 -30 -27 -64 -58 -76 -69 -11 -11 -41 -38 -65 -60 -24 -22 -120 -110 -214
-195 -93 -85 -194 -177 -224 -205 -29 -27 -59 -54 -65 -60 -20 -18 -220 -200
-236 -215 -9 -8 -56 -51 -104 -95 -49 -44 -111 -100 -137 -125 l-49 -45 166
-145 c92 -80 185 -161 208 -181 48 -43 459 -401 496 -432 22 -19 148 -130 235
-206 17 -15 118 -103 225 -196 107 -93 197 -172 200 -175 6 -7 136 -120 174
-151 16 -13 34 -29 41 -36 7 -7 50 -44 96 -84 46 -39 87 -77 91 -83 5 -7 8 -8
8 0 0 6 -32 63 -70 128 -39 65 -70 120 -70 122 0 3 -8 17 -19 32 -15 22 -540
921 -608 1042 -11 19 -64 109 -117 199 l-97 164 245 426 c134 234 284 496 333
581 49 85 101 175 115 200 14 25 100 175 192 334 91 159 165 290 163 292 -1 1
-25 -19 -52 -45z"/>
<path d="M7970 6440 c7 -14 56 -104 108 -200 52 -96 109 -202 127 -235 18 -33
88 -163 157 -290 69 -126 143 -264 165 -305 22 -41 57 -106 78 -145 21 -38 64
-117 95 -175 31 -58 76 -141 100 -185 23 -44 53 -99 67 -122 24 -41 24 -41 5
-75 -28 -49 -560 -909 -583 -940 -10 -15 -19 -30 -19 -33 0 -3 -15 -27 -33
-53 -19 -26 -36 -52 -38 -58 -2 -5 -57 -95 -122 -200 -66 -104 -124 -198 -130
-209 -7 -10 -35 -55 -63 -100 -28 -44 -59 -96 -70 -115 -10 -19 -23 -38 -29
-42 -5 -4 -7 -9 -5 -12 3 -2 66 48 141 112 75 64 203 174 285 244 82 69 160
136 174 148 14 12 47 40 74 63 266 226 898 764 921 785 17 15 59 52 95 82 36
30 70 60 76 65 6 6 32 28 59 50 52 42 127 106 135 115 3 3 26 23 53 44 26 21
47 43 47 49 0 6 -17 27 -38 46 -21 20 -90 83 -152 141 -63 58 -126 116 -140
130 -15 14 -80 75 -145 135 -65 61 -135 126 -155 145 -20 19 -66 62 -101 94
-35 33 -122 114 -193 180 -71 67 -138 129 -149 138 -11 10 -72 67 -136 127
-64 60 -132 123 -151 141 -40 37 -239 222 -349 325 -110 103 -116 108 -146
135 l-28 25 13 -25z"/>
</g>
</svg>
